HIERARCHY
ROOT Hips
{
	OFFSET 0.000000 0.000000 0.000000
	CHANNELS 6 Xposition Yposition Zposition Zrotation Yrotation Xrotation 
	JOINT LHipJoint
	{
		OFFSET 0.000000 0.000000 0.000000
		CHANNELS 3 Zrotation Yrotation Xrotation
		JOINT LeftUpLeg
		{
			OFFSET 1.363060 -1.794630 0.839290
			CHANNELS 3 Zrotation Yrotation Xrotation
			JOINT LeftLeg
			{
				OFFSET 2.448110 -6.726130 0.000000
				CHANNELS 3 Zrotation Yrotation Xrotation
				JOINT LeftFoot
				{
					OFFSET 2.562200 -7.039590 0.000000
					CHANNELS 3 Zrotation Yrotation Xrotation
					JOINT LeftToeBase
					{
						OFFSET 0.157640 -0.433110 2.322550
						CHANNELS 3 Zrotation Yrotation Xrotation
						End Site
						{
							OFFSET 0.000000 0.000000 0.000000
						}
					}
				}
			}
		}
	}
	JOINT RHipJoint
	{
		OFFSET 0.000000 0.000000 0.000000
		CHANNELS 3 Zrotation Yrotation Xrotation
		JOINT RightUpLeg
		{
			OFFSET -1.305520 -1.794630 0.839290
			CHANNELS 3 Zrotation Yrotation Xrotation
			JOINT RightLeg
			{
				OFFSET -2.542530 -6.985550 0.000000
				CHANNELS 3 Zrotation Yrotation Xrotation
				JOINT RightFoot
				{
					OFFSET -2.568260 -7.056230 0.000000
					CHANNELS 3 Zrotation Yrotation Xrotation
					JOINT RightToeBase
					{
						OFFSET -0.164730 -0.452590 2.363150
						CHANNELS 3 Zrotation Yrotation Xrotation
						End Site
						{
							OFFSET 0.000000 0.000000 0.000000
						}
					}
				}
			}
		}
	}
	JOINT LowerBack
	{
		OFFSET 0.000000 0.000000 0.000000
		CHANNELS 3 Zrotation Yrotation Xrotation
		JOINT Spine
		{
			OFFSET 0.028270 2.035590 -0.193380
			CHANNELS 3 Zrotation Yrotation Xrotation
			JOINT Spine1
			{
				OFFSET 0.056720 2.048850 -0.042750
				CHANNELS 3 Zrotation Yrotation Xrotation
				JOINT Neck
				{
					OFFSET 0.000000 0.000000 0.000000
					CHANNELS 3 Zrotation Yrotation Xrotation
					JOINT Neck1
					{
						OFFSET -0.054170 1.746240 0.172020
						CHANNELS 3 Zrotation Yrotation Xrotation
						JOINT Head
						{
							OFFSET 0.104070 1.761360 -0.123970
							CHANNELS 3 Zrotation Yrotation Xrotation
							End Site
							{
								OFFSET 0.000000 0.000000 0.000000
							}
						}
					}
				}
				JOINT LeftShoulder
				{
					OFFSET 0.000000 0.000000 0.000000
					CHANNELS 3 Zrotation Yrotation Xrotation
					JOINT LeftArm
					{
						OFFSET 3.362410 1.200890 -0.311210
						CHANNELS 3 Zrotation Yrotation Xrotation
						JOINT LeftForeArm
						{
							OFFSET 4.983000 -0.000000 -0.000000
							CHANNELS 3 Zrotation Yrotation Xrotation
							JOINT LeftHand
							{
								OFFSET 3.483560 -0.000000 -0.000000
								CHANNELS 3 Zrotation Yrotation Xrotation
								JOINT LeftFingerBase
								{
									OFFSET 0.000000 0.000000 0.000000
									CHANNELS 3 Zrotation Yrotation Xrotation
									JOINT LeftHandIndex1
									{
										OFFSET 0.715260 -0.000000 -0.000000
										CHANNELS 3 Zrotation Yrotation Xrotation
										End Site
										{
											OFFSET 0.000000 0.000000 0.000000
										}
									}
								}
								JOINT LThumb
								{
									OFFSET 0.000000 0.000000 0.000000
									CHANNELS 3 Zrotation Yrotation Xrotation
									End Site
									{
										OFFSET 0.000000 0.000000 0.000000
									}
								}
							}
						}
					}
				}
				JOINT RightShoulder
				{
					OFFSET 0.000000 0.000000 0.000000
					CHANNELS 3 Zrotation Yrotation Xrotation
					JOINT RightArm
					{
						OFFSET -3.136600 1.374050 -0.404650
						CHANNELS 3 Zrotation Yrotation Xrotation
						JOINT RightForeArm
						{
							OFFSET -5.241900 -0.000000 -0.000000
							CHANNELS 3 Zrotation Yrotation Xrotation
							JOINT RightHand
							{
								OFFSET -3.444170 -0.000000 -0.000000
								CHANNELS 3 Zrotation Yrotation Xrotation
								JOINT RightFingerBase
								{
									OFFSET 0.000000 0.000000 0.000000
									CHANNELS 3 Zrotation Yrotation Xrotation
									JOINT RightHandIndex1
									{
										OFFSET -0.622530 -0.000000 -0.000000
										CHANNELS 3 Zrotation Yrotation Xrotation
										End Site
										{
											OFFSET 0.000000 0.000000 0.000000
										}
									}
								}
								JOINT RThumb
								{
									OFFSET 0.000000 0.000000 0.000000
									CHANNELS 3 Zrotation Yrotation Xrotation
									End Site
									{
										OFFSET 0.000000 0.000000 0.000000
									}
								}
							}
						}
					}
				}
			}
		}
	}
}
MOTION
Frames: 10
Frame Time: 0.008333
0.193649 19.258030 -24.871012 177.167583 20.707143 179.730952 -13.024922 -3.836075 0.668817 -0.392737 -1.837969 -22.726482 -0.927853 9.164150 23.463422 3.156386 5.158242 34.050485 0.001700 -0.269800 -0.741200 9.445302 1.994101 2.509794 3.185850 -4.406856 -19.442730 -1.622962 -10.388622 27.977417 3.908824 -15.476869 18.526003 -2.506100 9.849000 -28.489000 1.812108 -0.686070 10.632607 0.821695 -0.496781 -4.118566 2.047188 -0.041649 -4.683057 1.053039 4.462763 -12.108063 1.152337 5.433102 7.968288 -2.176700 2.534200 8.120200 2.291708 -2.959330 -1.280803 -85.733153 18.179083 0.660668 18.632108 -31.438749 -9.099605 -0.850235 -0.669892 14.280486 13.402395 0.520538 0.349800 -7.125000 0.000000 0.000000 -9.969100 31.323600 3.378500 -1.626408 2.529868 -1.264687 80.810520 -18.999374 -9.234364 -18.455179 29.710515 -8.564860 2.313005 2.712004 -5.564189 -22.083708 -10.562149 5.894700 7.125000 0.000000 0.000000 2.437800 -44.205900 0.047800 
0.204758 19.273496 -24.916430 177.225594 21.035164 -179.966365 -13.023412 -3.835168 0.630120 -0.305688 -1.815889 -22.755378 -0.888795 9.178730 23.414459 3.007661 5.505760 33.901375 0.001800 -0.274600 -0.754500 9.542955 1.966734 2.564140 3.133285 -4.001512 -19.183574 -1.456478 -10.197229 27.353188 3.971557 -15.631415 18.556015 -2.497200 9.832900 -28.437200 1.928025 -0.552707 10.538594 0.805789 -0.319979 -4.134147 1.874407 0.048793 -4.753430 1.080428 4.461100 -12.040310 1.142370 5.437488 8.028222 -2.182400 2.542600 8.149400 2.317776 -3.001749 -1.282775 -86.197487 17.976695 0.810550 18.453591 -31.219826 -8.930128 -0.842891 -0.633731 14.552832 13.412828 0.357796 0.300700 -7.125000 0.000000 0.000000 -9.940500 31.124100 3.416900 -1.688053 2.583996 -1.274531 80.570751 -18.743778 -8.659296 -19.129883 30.377122 -9.029776 2.307668 2.663155 -5.691530 -22.256671 -10.233926 5.771100 7.125000 0.000000 0.000000 2.231200 -43.814600 0.065300 
0.213798 19.289507 -24.960213 177.272224 21.363712 -179.671926 -13.026929 -3.834546 0.594457 -0.233921 -1.808290 -22.780819 -0.848562 9.190197 23.360456 2.840782 5.887775 33.751717 0.002000 -0.285300 -0.783900 9.623657 1.947556 2.601833 3.068352 -3.622007 -18.983733 -1.312184 -10.033328 26.827917 3.977193 -15.683015 18.649456 -2.487000 9.814300 -28.377400 2.044249 -0.418595 10.457700 0.787318 -0.142381 -4.151724 1.697154 0.138841 -4.830893 1.108148 4.458548 -11.977707 1.129975 5.440684 8.087974 -2.188600 2.550300 8.180800 2.343406 -3.046632 -1.285232 -86.650004 17.763525 0.946328 18.296597 -31.016980 -8.776543 -0.835752 -0.603337 14.753655 13.410768 0.227869 0.260800 -7.125000 0.000000 0.000000 -9.926400 30.962500 3.451000 -1.750718 2.638886 -1.283327 80.354153 -18.466711 -8.089934 -19.815982 31.031401 -9.504531 2.312319 2.628294 -5.938656 -22.538134 -9.973981 5.710300 7.125000 0.000000 0.000000 1.923800 -43.517400 0.070400 
0.221095 19.306170 -25.002580 177.323622 21.695843 -179.387135 -13.033565 -3.831284 0.563585 -0.161788 -1.815522 -22.795172 -0.806364 9.197845 23.295584 2.654391 6.312296 33.606043 0.002100 -0.297800 -0.818200 9.691148 1.936864 2.623066 3.009088 -3.275778 -18.840771 -1.190265 -9.898015 26.396067 3.949858 -15.677416 18.787474 -2.473700 9.790000 -28.299200 2.171540 -0.286776 10.395306 0.768292 0.035250 -4.169536 1.517919 0.227244 -4.906779 1.138755 4.458813 -11.939076 1.115670 5.447289 8.150824 -2.195400 2.558800 8.221800 2.367933 -3.094312 -1.288017 -87.091670 17.529149 1.057219 18.155381 -30.823754 -8.635030 -0.828705 -0.578269 14.879568 13.393039 0.127060 0.229000 -7.125000 0.000000 0.000000 -9.928300 30.834500 3.482600 -1.809971 2.693897 -1.290813 80.146377 -18.159120 -7.559064 -20.490753 31.652982 -9.975746 2.315466 2.593792 -6.177180 -22.797997 -9.720356 5.643300 7.125000 0.000000 0.000000 1.641900 -43.223500 0.072000 
0.226867 19.323270 -25.044076 177.373315 22.026623 -179.111779 -13.045424 -3.825587 0.536923 -0.095168 -1.837895 -22.797971 -0.762742 9.202138 23.220906 2.447341 6.778464 33.456354 0.002400 -0.313100 -0.860200 9.745799 1.933041 2.631739 2.953398 -2.984463 -18.754981 -1.086349 -9.785021 26.038324 3.887501 -15.614500 18.977928 -2.455100 9.755800 -28.189600 2.303209 -0.156703 10.340889 0.748646 0.212272 -4.186926 1.342033 0.314060 -4.975899 1.160365 4.458047 -11.918324 1.105423 5.454831 8.216740 -2.196400 2.567100 8.268700 2.390703 -3.142333 -1.291298 -87.524705 17.281753 1.155720 18.026403 -30.639219 -8.502935 -0.822763 -0.556901 14.937316 13.374073 0.046066 0.202900 -7.125000 0.000000 0.000000 -9.932800 30.729800 3.509500 -1.866865 2.748079 -1.297027 79.943760 -17.827186 -7.064171 -21.150957 32.242177 -10.441819 2.315602 2.560390 -6.413495 -23.024789 -9.473271 5.568000 7.125000 0.000000 0.000000 1.396700 -42.933200 0.071200 
0.231769 19.340478 -25.085137 177.415991 22.348909 -178.846700 -13.063581 -3.817682 0.513582 -0.038357 -1.875232 -22.789805 -0.718541 9.204646 23.140955 2.222287 7.275361 33.293952 0.002600 -0.328400 -0.902300 9.789323 1.933009 2.633874 2.899518 -2.757714 -18.715439 -0.995260 -9.686318 25.729374 3.799040 -15.508451 19.202199 -2.433200 9.715400 -28.059800 2.425850 -0.030067 10.283543 0.729705 0.383981 -4.203992 1.179502 0.397747 -5.038309 1.172815 4.456843 -11.902071 1.096680 5.464773 8.286386 -2.194900 2.576200 8.318500 2.412726 -3.188684 -1.294959 -87.947951 17.033087 1.255276 17.900917 -30.458170 -8.374973 -0.819143 -0.538630 14.917576 13.363609 -0.017766 0.182100 -7.125000 0.000000 0.000000 -9.931100 30.645400 3.529200 -1.921829 2.799938 -1.302535 79.742229 -17.487989 -6.577913 -21.805141 32.810870 -10.908939 2.312793 2.534492 -6.672857 -23.230475 -9.270368 5.508200 7.125000 0.000000 0.000000 1.179700 -42.694700 0.067100 
0.236670 19.357142 -25.125980 177.458613 22.656773 -178.590987 -13.085255 -3.807248 0.492587 0.016545 -1.924574 -22.770778 -0.674394 9.206441 23.058207 1.987200 7.785876 33.120328 0.002800 -0.343500 -0.943700 9.826534 1.934233 2.634289 2.855584 -2.586994 -18.702914 -0.912088 -9.595509 25.446921 3.704847 -15.392739 19.430405 -2.415400 9.682500 -27.954400 2.535554 0.088637 10.222848 0.713367 0.544758 -4.219403 1.035005 0.475589 -5.088198 1.190881 4.459314 -11.897788 1.084453 5.478975 8.356408 -2.198700 2.587200 8.371500 2.434353 -3.233645 -1.298268 -88.351289 16.780993 1.369035 17.775133 -30.278355 -8.249011 -0.818930 -0.522578 14.814991 13.373084 -0.068120 0.165500 -7.125000 0.000000 0.000000 -9.912400 30.577300 3.538800 -1.971058 2.848969 -1.306548 79.538798 -17.129975 -6.110494 -22.437177 33.344744 -11.365111 2.303169 2.508684 -6.896825 -23.362022 -9.074594 5.431400 7.125000 0.000000 0.000000 1.040100 -42.457300 0.065300 
0.242551 19.373152 -25.166931 177.493373 22.945013 -178.343481 -13.110632 -3.796097 0.472883 0.063756 -1.979397 -22.746420 -0.632539 9.207315 22.974481 1.750054 8.290892 32.935201 0.003000 -0.355000 -0.975300 9.858936 1.934723 2.636214 2.815125 -2.464111 -18.705039 -0.833092 -9.506610 25.172332 3.609575 -15.274926 19.653175 -2.403000 9.659300 -27.880300 2.613490 0.196854 10.149649 0.700398 0.687684 -4.232574 0.917961 0.544888 -5.117977 1.217888 4.470382 -11.913506 1.069531 5.502891 8.427304 -2.208400 2.602700 8.430100 2.457575 -3.276694 -1.301190 -88.733556 16.529372 1.506959 17.656525 -30.109520 -8.130411 -0.821777 -0.509710 14.635791 13.397108 -0.097162 0.155100 -7.125000 0.000000 0.000000 -9.882500 30.534200 3.538200 -2.016411 2.895372 -1.309268 79.337543 -16.754149 -5.629428 -23.061095 33.857869 -11.818850 2.287356 2.486749 -7.114094 -23.435904 -8.906538 5.353700 7.125000 0.000000 0.000000 0.962300 -42.248700 0.065300 
0.250175 19.388400 -25.207338 177.530384 23.207180 -178.100211 -13.135929 -3.783930 0.454616 0.115503 -2.036210 -22.717196 -0.594672 9.205965 22.887457 1.523080 8.769524 32.752349 0.003200 -0.365600 -1.004600 9.891687 1.933259 2.642118 2.786057 -2.361888 -18.701458 -0.755007 -9.417081 24.896885 3.525342 -15.173567 19.850981 -2.391400 9.637700 -27.811400 2.664686 0.295558 10.063642 0.691780 0.815650 -4.244178 0.830621 0.607598 -5.138598 1.251736 4.485132 -11.921977 1.050229 5.530624 8.494448 -2.225800 2.620400 8.483800 2.481321 -3.316606 -1.303569 -89.078687 16.292762 1.707321 17.538270 -29.948611 -8.015184 -0.827660 -0.499805 14.382964 13.435107 -0.109559 0.149700 -7.125000 0.000000 0.000000 -9.841400 30.511100 3.528600 -2.056460 2.937887 -1.310566 79.140343 -16.373899 -5.151609 -23.668187 34.345411 -12.264473 2.264678 2.466204 -7.303697 -23.438570 -8.752057 5.265500 7.125000 0.000000 0.000000 0.958100 -42.050700 0.069700 
0.259868 19.402886 -25.246874 177.561048 23.435005 -177.866065 -13.162365 -3.771885 0.437921 0.165785 -2.094283 -22.685871 -0.563590 9.201240 22.796742 1.314626 9.204823 32.578574 0.003400 -0.374900 -1.030200 9.925062 1.928272 2.652913 2.757784 -2.268789 -18.684644 -0.678280 -9.325416 24.615043 3.458076 -15.099692 20.020752 -2.380700 9.617700 -27.747500 2.677802 0.383840 9.967601 0.686980 0.925211 -4.255038 0.774025 0.662508 -5.153492 1.295399 4.504297 -11.926915 1.025602 5.562633 8.559292 -2.251900 2.640600 8.535600 2.506782 -3.354043 -1.305884 -89.381515 16.078656 1.989995 17.426268 -29.803161 -7.906857 -0.835640 -0.493668 14.064881 13.477780 -0.101875 0.150300 -7.125000 0.000000 0.000000 -9.797800 30.511700 3.512400 -2.094647 2.977638 -1.311242 78.961737 -15.996846 -4.639577 -24.285332 34.829848 -12.719149 2.241575 2.457664 -7.548625 -23.453897 -8.670595 5.219700 7.125000 0.000000 0.000000 0.948100 -41.944300 0.071500 
